<svg width="48" height="85" viewBox="0 0 48 85" fill="none" xmlns="http://www.w3.org/2000/svg">
<path d="M12 79.1628L8.91329 80L4 69.2358L8.55569 68L12 79.1628Z" fill="#E2C0C5"/>
<path d="M14 82.0701L4.1924 85L4.15652 84.8719C3.86366 83.8265 3.98495 82.7037 4.4937 81.7506C5.00245 80.7975 5.857 80.0921 6.86938 79.7895L12.8598 78L14 82.0701Z" fill="#2F2E41"/>
<path d="M36 79.2694L38.8684 80L43 69.0781L38.7665 68L36 79.2694Z" fill="#E2C0C5"/>
<path d="M34.9898 78L41.0064 79.6398C42.0232 79.917 42.8977 80.6232 43.4369 81.603C43.9761 82.5827 44.1362 83.7558 43.882 84.8642L43.8508 85L34 82.3152L34.9898 78Z" fill="#2F2E41"/>
<path d="M19.7097 39L16.5645 42.3027C16.5645 42.3027 0 49.5275 0 53.2431C0 56.9587 3.98387 73.0596 5.66128 74.2981C6.67165 75.0482 6.21493 75.8561 6.71619 77L12.5806 74.9174C12.5806 74.9174 12.1613 73.6788 12.5806 73.0596C13 72.4403 12.5806 72.0275 12.5806 72.0275C12.5806 72.0275 11.9516 72.2339 12.1613 71.6146C12.371 70.9954 12.371 70.789 12.1613 70.5825C11.9516 70.3761 11.3226 68.5183 11.3226 68.5183C11.3226 68.5183 11.5323 61.0871 8.59677 58.4036C8.59677 58.4036 22.2258 54.4816 23.9032 51.7981C25.5807 49.1146 26 39.4128 26 39.4128L19.7097 39Z" fill="#2F2E41"/>
<path d="M28.5357 37.1435L31.6417 42.5732C31.6417 42.5732 48 49.8824 48 53.6414C48 57.4004 44.0657 73.6895 42.4092 74.9425C41.4114 75.7014 41.6974 76.8427 41.2023 78L35.576 75.569C35.576 75.569 35.9901 74.316 35.576 73.6895C35.1618 73.063 35.576 72.6453 35.576 72.6453C35.576 72.6453 36.1972 72.8541 35.9901 72.2276C35.783 71.6011 35.783 71.3923 35.9901 71.1835C36.1972 70.9746 36.8184 69.0951 36.8184 69.0951C36.8184 69.0951 36.6113 61.5771 39.5103 58.8622C39.5103 58.8622 24.8085 53.6414 23.152 50.9266C21.0304 47.4496 22.5816 33.172 22.1166 37.9788L28.5357 37.1435Z" fill="#2F2E41"/>
<path d="M29.5 13C32.5376 13 35 10.5376 35 7.5C35 4.46243 32.5376 2 29.5 2C26.4624 2 24 4.46243 24 7.5C24 10.5376 26.4624 13 29.5 13Z" fill="#E2C0C5"/>
<path d="M33 15.647C33 15.647 33.05 15.743 23.5378 15C23.5378 15 18.2083 17.0977 18.4167 18.5484C18.625 19.9991 18 39.8947 18 39.8947C18 39.8947 26.75 42.3816 29.25 39.8947C31.75 37.4077 33 15.647 33 15.647Z" fill="#C3A48B"/>
<path d="M31.2385 15L33.7657 15.1572C33.7657 15.1572 41.2039 17.9126 40.9957 19.9851C40.7875 22.0576 36.8316 31.7983 36.8316 31.7983C36.8316 31.7983 34.7495 39.2593 35.166 41.3318C35.5824 43.4043 36.207 44.026 35.7906 44.6478C35.3742 45.2695 35.7906 46.513 35.7906 46.9275C35.7906 47.342 33.2921 49 33.2921 49C33.2921 49 29.3362 45.4768 27.8788 44.855C26.4213 44.2333 25.3803 39.4665 26.4213 35.3216C27.4624 31.1766 30.5855 17.9126 30.5855 17.9126C30.4899 17.4084 30.4985 16.8902 30.6108 16.3894C30.7231 15.8887 30.9366 15.4159 31.2385 15Z" fill="#3F3D56"/>
<path d="M25 15.1295C23.8807 14.9235 22.7258 14.9637 21.6258 15.2468C20.4791 15.5402 15.2028 17.3858 15.2028 18.214C15.2028 19.0423 17.4099 29.3954 17.4099 29.3954L17.8514 35.4002L13.8785 38.092C13.8785 38.092 14.7614 40.7838 13.6578 41.8191C12.5542 42.8544 11.2299 45.5463 12.5542 45.9604C13.8785 46.3745 22.0449 43.4756 22.2656 40.3697C22.4863 37.2637 21.6035 34.9861 23.1485 32.7084C24.6935 30.4307 24.9142 21.527 24.9142 21.527L25 15.1295Z" fill="#3F3D56"/>
<path d="M34.2357 3.03403C33.4231 1.67291 32.1512 0.669918 30.6647 0.218085L29.5729 1.11904L29.9974 0.0681794C29.6404 0.0120096 29.2791 -0.0095316 28.9182 0.00384566L27.9359 1.30665L28.3425 0.0484713C27.4901 0.157738 26.6688 0.448006 25.9306 0.900962C25.1923 1.35392 24.5531 1.95974 24.0532 2.68023C22.8029 4.53981 22.5919 7.12588 23.8216 9C24.1592 7.92994 24.5689 6.92586 24.9065 5.85579C25.1718 5.8931 25.4407 5.89445 25.7063 5.8598L26.117 4.87132L26.2317 5.818C27.5047 5.70359 29.3928 5.45245 30.5996 5.22233L30.4823 4.4961L31.1844 5.0996C31.5541 5.0118 31.7736 4.93218 31.7555 4.87133C32.653 6.36383 33.7514 7.31712 34.6489 8.80961C34.9896 6.70439 35.3821 4.95447 34.2357 3.03403Z" fill="#2F2E41"/>
<path d="M31.6951 45H22.3049C22.0686 45 21.8419 44.9066 21.6748 44.7403C21.5077 44.574 21.4138 44.3484 21.4138 44.1132L21 31.8868C21 31.6516 21.0939 31.426 21.261 31.2597C21.4281 31.0934 21.6548 31 21.8911 31H32.1089C32.3452 31 32.5719 31.0934 32.739 31.2597C32.9061 31.426 33 31.6516 33 31.8868L32.5862 44.1132C32.5862 44.3484 32.4923 44.574 32.3252 44.7403C32.1581 44.9066 31.9314 45 31.6951 45Z" fill="#E4E4E4"/>
<path d="M27.5 35C27.7761 35 28 34.5523 28 34C28 33.4477 27.7761 33 27.5 33C27.2239 33 27 33.4477 27 34C27 34.5523 27.2239 35 27.5 35Z" fill="#6C63FF"/>
<path d="M28.4802 39.7731C28.686 39.5389 28.9497 39.3459 29.2527 39.2079C29.5556 39.0698 29.8904 38.9899 30.2335 38.9739C30.5766 38.9579 30.9197 39.0061 31.2386 39.1151C31.5574 39.2241 31.8443 39.3914 32.0791 39.605L37.1086 38L39 40.3636L31.8599 42.5453C31.4121 42.8571 30.8455 43.0183 30.2674 42.9983C29.6894 42.9784 29.14 42.7786 28.7234 42.4369C28.3068 42.0952 28.0519 41.6353 28.0071 41.1443C27.9623 40.6534 28.1306 40.1655 28.4802 39.7731Z" fill="#E2C0C5"/>
<path d="M25.7681 39.0958C25.6268 38.8337 25.4241 38.603 25.1743 38.4199C24.9245 38.2368 24.6336 38.1058 24.3222 38.0362C24.0107 37.9665 23.6863 37.9599 23.3717 38.0167C23.0571 38.0735 22.7601 38.1925 22.5015 38.3651L18.2142 36L16 38.0213L22.106 41.284C22.4534 41.6603 22.9403 41.9075 23.4746 41.9788C24.0088 42.0501 24.5532 41.9404 25.0046 41.6707C25.456 41.401 25.7831 40.9899 25.9238 40.5153C26.0645 40.0408 26.0091 39.5357 25.7681 39.0958Z" fill="#E2C0C5"/>
<path d="M37.1298 19.0617C37.1298 19.0617 40.2272 18.4426 41.0531 21.1254C41.8791 23.8081 46.0089 33.7136 44.7699 35.1581C43.531 36.6027 38.9882 40.5236 37.5428 41.3491C36.0973 42.1746 35.4779 42.1745 35.4779 42.1745L33.6195 43L33 38.2536L35.1194 36.999L38.3688 34.3327L36.5103 28.7609L37.1298 19.0617Z" fill="#3F3D56"/>
<path d="M16.8702 18.0617C16.8702 18.0617 13.7728 17.4427 12.9469 20.1254C12.1209 22.8081 7.99113 32.7136 9.23006 34.1581C10.469 35.6027 15.0118 39.5236 16.4572 40.3491C17.9026 41.1746 18.5221 41.1745 18.5221 41.1745L20.3805 42L21 37.2536L18.8806 35.9989L15.6313 33.3327L18.6254 26.0068L16.8702 18.0617Z" fill="#3F3D56"/>
</svg>
