<svg width="93" height="73" viewBox="0 0 93 73" fill="none" xmlns="http://www.w3.org/2000/svg">
<path d="M80.4965 60.0219H12.2754V48.3874H13.3278V39.7276C13.3301 37.6873 14.138 35.7312 15.5742 34.2885C17.0104 32.8458 18.9576 32.0343 20.9887 32.032H71.907C73.9381 32.0343 75.8853 32.8458 77.3215 34.2885C78.7577 35.7313 79.5656 37.6873 79.5679 39.7276V48.3874H80.4965V60.0219Z" fill="#C3A48B"/>
<path d="M82.3449 72.8273H78.9488V72.7651C78.9454 69.7479 77.7508 66.8552 75.6269 64.7217C73.5031 62.5882 70.6235 61.3881 67.6199 61.3847H25.152C22.1484 61.3881 19.2688 62.5882 17.145 64.7217C15.0211 66.8552 13.8265 69.7479 13.8231 72.7651V72.8273H10.427C9.65326 72.8264 8.91146 72.5172 8.36435 71.9676C7.81724 71.418 7.50949 70.6729 7.50861 69.8956V50.8772C6.52244 50.3175 5.72035 47.2777 6.24134 44.85C6.5683 43.3266 7.51218 41.4867 10.1521 41.3727C12.7219 41.2617 14.6293 43.6853 14.7997 46.0183C14.8921 47.2459 14.5331 48.4649 13.7909 49.4446H13.8231V52.1577C19.3957 50.3638 24.9763 49.451 30.4109 49.4446C35.9721 49.4501 41.4946 50.3733 46.7579 52.1775C57.701 48.622 68.5308 48.5528 78.9488 51.9727V49.4446H78.981C78.2388 48.4649 77.8799 47.2459 77.9722 46.0183C78.1591 43.4594 80.2428 41.3754 82.6171 41.3727H82.625C85.4249 41.3727 86.4152 43.0659 86.753 44.4871C87.3508 47.0023 86.2533 50.3128 85.2633 50.8771V69.8956C85.2624 70.6729 84.9547 71.418 84.4076 71.9676C83.8605 72.5172 83.1187 72.8264 82.3449 72.8273Z" fill="#987E6A"/>
<path d="M63.3713 67.7381L65.0105 68.9144L70.3074 63.1226L67.888 61.3866L63.3713 67.7381Z" fill="#FFB6B6"/>
<path d="M63.3355 66.9004L63.7969 67.2315L66.1216 67.7884L66.5638 69.217C67.1094 69.6086 67.4779 70.202 67.5881 70.8664C67.6983 71.5308 67.5412 72.212 67.1515 72.7601L67.1037 72.8273L61.8181 69.0343L63.3355 66.9004Z" fill="#2F2E41"/>
<path d="M74.4796 52.2318H62.443C61.3206 52.2312 60.2443 51.7829 59.4509 50.9854C58.6574 50.1879 58.2117 49.1065 58.2117 47.979C58.2117 46.8515 58.6574 45.7701 59.4509 44.9726C60.2443 44.1751 61.3206 43.7268 62.443 43.7262H74.4796C75.6024 43.7262 76.6793 44.1742 77.4732 44.9718C78.2672 45.7694 78.7132 46.8511 78.7132 47.979C78.7132 49.1069 78.2672 50.1886 77.4732 50.9862C76.6793 51.7837 75.6024 52.2318 74.4796 52.2318Z" fill="#2F2E41"/>
<path d="M68.5742 22.5352L70.5157 24.0203L72.8571 24.7431C72.8571 24.7431 73.8251 38.4209 74.6973 39.297C75.5695 40.1732 74.7828 40.1967 74.9581 41.3349C75.1334 42.4731 75.5593 44.8062 75.5593 44.8062C69.672 47.9368 64.5965 48.0208 60.5196 44.3575C60.4674 44.1309 60.4939 43.8932 60.5947 43.6838C60.6955 43.4743 60.8644 43.3058 61.0736 43.2061C61.8324 42.8017 60.3741 40.914 60.9943 40.5983C61.6144 40.2827 60.7422 37.5447 60.7422 37.5447L61.3143 31.8321L60.8623 30.9189L61.9654 25.3314L63.8795 24.6291L64.6441 22.7785L68.5742 22.5352Z" fill="#6C63FF"/>
<path d="M69.7904 9.76527C69.7817 10.0123 69.827 10.2582 69.9232 10.4857C70.0193 10.7132 70.164 10.9168 70.3469 11.0821C70.5299 11.2474 70.7466 11.3704 70.982 11.4424C71.2174 11.5144 71.4656 11.5337 71.7092 11.4989L74.4454 16.8414L75.9698 14.1207L73.1378 9.46444C73.0525 9.05722 72.8215 8.69558 72.4885 8.44804C72.1555 8.2005 71.7437 8.08426 71.3311 8.12134C70.9185 8.15842 70.5338 8.34625 70.2498 8.64924C69.9659 8.95222 69.8024 9.34932 69.7904 9.76527Z" fill="#FFB6B6"/>
<path d="M74.3984 11.0722L80.2671 20.2093L80.2478 20.2514C80.2256 20.2996 78.8966 23.1828 77.6089 25.8237C77.4106 26.2304 77.2133 26.6313 77.0219 27.0153C76.9393 27.181 76.8579 27.3432 76.7777 27.502C76.2369 28.5731 75.7643 29.4584 75.4823 29.8789C74.8584 30.8297 73.9295 31.5376 72.8499 31.8849L72.8228 31.8919L72.7968 31.8811C72.2688 31.6572 71.8324 31.2593 71.5597 30.7529C71.2869 30.2465 71.1941 29.6618 71.2966 29.0953C71.8056 26.3629 72.9399 23.7867 74.6099 21.5701L75.5613 20.3103L72.2551 13.0895L74.3984 11.0722Z" fill="#6C63FF"/>
<path d="M64.259 8.64589C64.2677 8.8929 64.2224 9.13883 64.1262 9.36635C64.0301 9.59386 63.8854 9.79743 63.7025 9.96272C63.5195 10.128 63.3028 10.251 63.0674 10.323C62.832 10.395 62.5838 10.4143 62.3402 10.3795L59.604 15.7221L58.0796 13.0013L60.9116 8.34505C60.9969 7.93784 61.2279 7.5762 61.5609 7.32866C61.8939 7.08112 62.3057 6.96488 62.7183 7.00196C63.1309 7.03904 63.5156 7.22687 63.7996 7.52985C64.0835 7.83284 64.247 8.22993 64.259 8.64589Z" fill="#FFB6B6"/>
<path d="M59.651 9.9528L53.7823 19.09L53.8017 19.132C53.8238 19.1802 55.1528 22.0634 56.4405 24.7043C56.6388 25.111 56.8361 25.512 57.0275 25.8959C57.1101 26.0616 57.1915 26.2239 57.2717 26.3826C57.8125 27.4537 58.2851 28.339 58.5671 28.7596C59.191 29.7103 60.1199 30.4182 61.1995 30.7655L61.2266 30.7725L61.2526 30.7617C61.7806 30.5378 62.217 30.1399 62.4897 29.6335C62.7625 29.1271 62.8553 28.5424 62.7528 27.9759C62.2438 25.2435 61.1095 22.6673 59.4395 20.4507L58.4881 19.191L61.7943 11.9701L59.651 9.9528Z" fill="#6C63FF"/>
<path d="M66.5866 21.7087C68.7076 21.7087 70.427 19.9815 70.427 17.8509C70.427 15.7203 68.7076 13.9931 66.5866 13.9931C64.4657 13.9931 62.7463 15.7203 62.7463 17.8509C62.7463 19.9815 64.4657 21.7087 66.5866 21.7087Z" fill="#FFB6B6"/>
<path d="M63.4587 14.5367C63.7745 13.6138 65.3466 12.9736 67.8954 12.8846C70.4441 12.7955 71.0905 15.8128 71.0905 15.8128C72.792 17.1993 69.2737 20.9113 69.1035 20.7776L69.18 20.0802C69.3067 18.925 69.8452 18.0237 69.1604 16.8197L68.5028 16.8273L67.2555 17.0683C67.1778 17.0833 67.0972 17.0722 67.0264 17.0367C66.9555 17.0012 66.8983 16.9433 66.8634 16.8719C66.8285 16.8005 66.818 16.7196 66.8335 16.6416C66.8489 16.5636 66.8895 16.4928 66.9489 16.4403L66.9603 16.4302L66.932 16.3861C66.4926 16.5886 66.0398 16.7764 65.5595 16.8047C65.019 16.8367 64.4282 16.6206 64.1694 16.143C64.1003 16.0117 64.058 15.8678 64.0452 15.7199C63.3164 16.0124 62.9832 16.9149 62.9832 16.9149C62.9832 16.9149 63.1428 15.4597 63.4587 14.5367Z" fill="#2F2E41"/>
<path d="M73.8305 66.0971L72.293 67.4048L66.5401 62.07L68.8092 60.14L73.8305 66.0971Z" fill="#FFB6B6"/>
<path d="M75.4845 67.2605L70.5272 71.4772L70.4741 71.4142C70.0408 70.9002 69.8285 70.2343 69.884 69.563C69.9394 68.8917 70.258 68.27 70.7697 67.8347L71.0936 66.3743L73.3648 65.6273L73.7976 65.2592L75.4845 67.2605Z" fill="#2F2E41"/>
<path d="M64.3289 51.346L65.5997 48.5777C65.5855 46.0526 63.4813 44.0019 60.9726 44.1602C59.5755 44.2483 58.2672 45.0333 57.7267 47.3663C56.3368 53.3656 69.9746 65.8502 69.9746 65.8502L72.4805 64.2945L72.596 62.651L71.1926 61.7821L71.1913 60.3805L69.8531 59.7429L64.3289 51.346Z" fill="#2F2E41"/>
<path d="M72.6775 50.5836L71.1068 48.2635C70.9143 45.7458 72.8435 43.5282 75.3567 43.4787C76.7563 43.4512 78.1243 44.1254 78.854 46.4059C80.7302 52.2701 68.1606 65.8389 68.1606 65.8389L65.5358 64.4954L65.2862 62.8671L66.6137 61.8852L66.5002 60.4882L67.7817 59.7422L72.6775 50.5836Z" fill="#2F2E41"/>
<path d="M41.058 70.8585L39.1795 70.8584L38.2857 63.5793L41.0584 63.5794L41.058 70.8585Z" fill="#E2C0C5"/>
<path d="M41.1242 72.8273L35.3472 72.827V72.7536C35.3472 72.1546 35.5842 71.5801 36.0058 71.1565C36.4275 70.7329 36.9994 70.4949 37.5958 70.4949L38.6511 69.6907L40.62 70.495L41.1243 70.495L41.1242 72.8273Z" fill="#2F2E41"/>
<path d="M54.3506 70.8585L56.2291 70.8584L57.1228 63.5793L54.3501 63.5794L54.3506 70.8585Z" fill="#E2C0C5"/>
<path d="M54.2844 72.8273L60.0614 72.827V72.7536C60.0613 72.1546 59.8244 71.5801 59.4027 71.1565C58.981 70.7329 58.4091 70.4949 57.8128 70.4949L56.7574 69.6907L54.7886 70.495L54.2843 70.495L54.2844 72.8273Z" fill="#2F2E41"/>
<path d="M38.2031 58.2303C38.2308 57.8149 38.4514 55.5179 38.4514 55.5179L38.9798 50.6465L39.9719 36.8883L44.8503 35.9474L48.1844 34.3418L52.1474 35.6143L55.2332 36.7768C55.2332 36.7768 55.2385 37.2744 55.2623 37.8755C55.294 38.6625 55.3495 39.6272 55.4816 39.878C55.7022 40.3212 55.6467 42.7005 55.6467 42.7005C55.6467 42.7005 55.866 47.5414 56.1421 48.0722C56.4182 48.603 56.4736 49.7083 56.3904 49.9299C56.3072 50.1515 56.6665 55.9651 56.6665 55.9651C56.6665 55.9651 57.5887 66.2529 57.0101 67.8042C56.4315 69.3554 54.2451 68.3393 54.2451 68.3393C54.2451 68.3393 54.3508 67.9253 53.7167 67.7302C53.0827 67.5351 51.1514 52.9475 51.1514 52.9475C51.1514 52.9475 50.7921 49.9565 50.4618 49.0992C50.1316 48.242 49.8278 45.8335 49.8278 45.8335C49.8278 45.8335 47.7881 41.8472 47.7617 40.9608C47.7617 40.9608 47.4949 40.1314 47.2426 41.0444C46.9903 41.9574 46.2466 44.1442 46.2466 44.1442L45.5213 46.8301L44.668 50.8429L44.1158 54.2214C44.1158 54.2214 43.2889 58.7053 43.1568 58.8991C43.0247 59.0928 43.1568 63.1892 43.1568 63.1892C43.1568 63.1892 42.5174 66.6779 41.6138 67.287C40.7103 67.8961 38.3164 67.2967 38.3164 67.2967C38.3164 67.2967 38.1753 58.6456 38.2031 58.2303Z" fill="#2F2E41"/>
<path d="M40.2843 23.418L41.3688 26.2707L40.0306 27.6618L40.6198 28.1913L40.1853 28.94L39.0517 36.7864L45.2657 38.8443L47.3581 36.5533L49.0081 38.8443L56.1983 37.3101L54.3647 27.3042V26.6501L53.8469 25.3871V22.7132L56.2246 14.7537L51.1336 13.5055L49.1825 12.157L48.5511 14.0535L45.8628 13.6358L45.7928 12.2112L43.736 13.9081L40.9936 14.3395L38.9198 14.7537L38.6555 15.3305L39.1839 15.215L40.1086 22.7189L40.2843 23.418Z" fill="#2F2E41"/>
<path d="M44.4658 15.7158L45.7928 12.2194L49.1825 12.157L50.3072 15.7158L54.3501 38.403C54.3501 38.403 41.9644 41.8679 42.0901 37.7029C42.2222 33.3239 42.8182 27.507 42.8182 27.507L44.4658 15.7158Z" fill="#C3A48B"/>
<path d="M47.4118 11.2414C49.6171 11.2414 51.4049 9.44557 51.4049 7.23026C51.4049 5.01494 49.6171 3.21907 47.4118 3.21907C45.2066 3.21907 43.4188 5.01494 43.4188 7.23026C43.4188 9.44557 45.2066 11.2414 47.4118 11.2414Z" fill="#E2C0C5"/>
<path d="M43.1833 4.32038C43.8334 3.6096 44.6465 2.30853 47.1094 1.76217C50.1527 1.08706 51.5907 3.84874 50.8233 3.89401C53.0674 4.57666 51.6258 9.2418 50.9824 8.85055C50.9769 8.84668 50.9716 8.84252 50.9665 8.83809C50.6205 8.58212 50.3301 8.25798 50.113 7.88546C49.8959 7.51295 49.7567 7.09989 49.7039 6.67151L49.5818 5.56755C49.5643 6.46576 48.6504 6.58457 47.7168 6.25377C47.772 6.05684 47.8773 5.87778 48.0225 5.73424C48.1676 5.5907 48.3475 5.48765 48.5443 5.43526C47.9732 5.96448 47.2298 6.34307 46.1914 6.46371C46.3189 5.9681 46.5728 5.60327 46.9703 5.38703L46.9334 5.35066C46.553 5.64153 46.1565 5.92109 45.699 6.05281C45.1843 6.201 44.5676 6.12083 44.215 5.71613C44.12 5.60444 44.0483 5.47478 44.0041 5.33479C44.0803 6.04613 43.6053 6.85812 43.2364 6.71871C42.9295 6.65879 42.7506 4.79355 43.1833 4.32038Z" fill="#2F2E41"/>
<path d="M52.3352 7.00907L55.9667 13.1465L58.6508 11.873C58.6508 11.873 54.0258 6.0701 53.8784 5.90316C53.9415 5.6211 53.9179 5.32645 53.8106 5.05818C53.7034 4.78991 53.5176 4.56066 53.2779 4.40077C53.0381 4.24087 52.7557 4.15785 52.468 4.1627C52.1802 4.16755 51.9007 4.26004 51.6665 4.42792C51.4322 4.59581 51.2542 4.83119 51.156 5.10292C51.0578 5.37465 51.044 5.66994 51.1165 5.9497C51.1889 6.22947 51.3443 6.48055 51.5619 6.66971C51.7795 6.85887 52.0492 6.97721 52.3352 7.00907Z" fill="#E2C0C5"/>
<path d="M54.0934 22.2607L59.7294 18.1822C60.0971 17.9161 60.4054 17.5758 60.6348 17.1832C60.8641 16.7906 61.0094 16.3542 61.0613 15.902C61.1132 15.4497 61.0706 14.9916 60.9362 14.5569C60.8018 14.1221 60.5785 13.7203 60.2807 13.3772L56.2247 8.70322L54.4577 11.1085L55.8196 13.9691L53.1825 14.6677L54.0934 22.2607Z" fill="#2F2E41"/>
<path d="M44.4201 7.58594L40.7886 13.7233L38.1045 12.4499C38.1045 12.4499 42.7295 6.64697 42.8769 6.48002C42.8138 6.19797 42.8374 5.90332 42.9446 5.63505C43.0519 5.36678 43.2376 5.13753 43.4774 4.97763C43.7171 4.81773 43.9996 4.73472 44.2873 4.73957C44.575 4.74442 44.8545 4.8369 45.0888 5.00479C45.3231 5.17268 45.5011 5.40806 45.5993 5.67979C45.6975 5.95152 45.7113 6.24681 45.6388 6.52657C45.5663 6.80634 45.411 7.05741 45.1934 7.24657C44.9758 7.43574 44.7061 7.55407 44.4201 7.58594Z" fill="#E2C0C5"/>
<path d="M42.6619 22.8376L37.0259 18.759C36.6582 18.4929 36.3499 18.1527 36.1205 17.7601C35.8912 17.3674 35.7459 16.9311 35.694 16.4788C35.6421 16.0266 35.6847 15.5685 35.8191 15.1337C35.9535 14.699 36.1768 14.2972 36.4746 13.954L40.5306 9.28009L42.2976 11.6854L40.9357 14.546L43.5728 15.2446L42.6619 22.8376Z" fill="#2F2E41"/>
<path d="M3.72444 9.89625C3.81102 10.0249 3.92463 10.1328 4.05726 10.2126C4.18988 10.2923 4.33828 10.3418 4.49203 10.3577C4.64578 10.3736 4.80112 10.3554 4.94711 10.3044C5.09311 10.2535 5.22621 10.171 5.33703 10.0628L8.6941 11.7571L8.46539 9.8094L5.31253 8.49907C5.11921 8.32411 4.86871 8.22646 4.60851 8.22463C4.34831 8.22279 4.09648 8.3169 3.90073 8.48911C3.70499 8.66133 3.57892 8.89969 3.54643 9.15903C3.51394 9.41838 3.57727 9.68068 3.72444 9.89625Z" fill="#9E616A"/>
<path d="M17.6125 17.7576L15.941 16.5996C15.941 16.5996 14.0269 16.4692 13.739 15.8579C13.4511 15.2466 13.4026 15.4522 13.0957 15.3791C12.7888 15.3059 12.6305 14.3859 12.116 14.4944C10.9586 14.7386 5.51534 11.1255 6.10282 10.6739L6.53951 8.82421C7.00093 8.99725 7.48202 9.11187 7.97166 9.16541C8.71199 9.23324 10.4563 10.083 10.7146 10.3616C10.973 10.6402 11.4307 10.5322 12.0445 10.6784C12.6583 10.8246 12.8731 11.8164 13.8911 11.5525C15.3234 11.1812 22.7441 14.7169 23.5469 15.0469C24.4281 15.4091 25.0434 16.4888 25.0434 16.4888L24.8008 17.5164L17.6125 17.7576Z" fill="#6C63FF"/>
<path d="M29.6757 70.2916H31.1325L31.8258 64.6471H29.6756L29.6757 70.2916Z" fill="#9E616A"/>
<path d="M29.2002 69.2894L31.5277 69.1498V70.1515L33.7404 71.6867C33.8497 71.7625 33.932 71.8714 33.9753 71.9975C34.0186 72.1236 34.0207 72.2604 33.9812 72.3878C33.9416 72.5151 33.8626 72.6265 33.7556 72.7056C33.6486 72.7846 33.5193 72.8273 33.3865 72.8273H30.6156L30.138 71.8364L29.9515 72.8273H28.9068L29.2002 69.2894Z" fill="#2F2E41"/>
<path d="M11.417 69.0484L12.7705 69.5897L15.4928 64.6028L13.4952 63.8041L11.417 69.0484Z" fill="#9E616A"/>
<path d="M11.3443 67.9405L13.5581 68.6756L13.1893 69.6063L14.6799 71.8546C14.7536 71.9657 14.7899 72.0975 14.7837 72.2307C14.7775 72.364 14.7291 72.4918 14.6455 72.5955C14.5619 72.6991 14.4474 72.7732 14.3189 72.8069C14.1904 72.8406 14.0545 72.8322 13.9311 72.7829L11.3567 71.7534L11.2778 70.6554L10.7397 71.5067L9.76908 71.1186L11.3443 67.9405Z" fill="#2F2E41"/>
<path d="M26.7392 53.4953L24.3099 42.1072L20.5165 54.7604L14.4781 66.8225L12.5754 65.7934C12.3069 60.9215 12.9446 56.3562 15.2772 52.3641L16.3817 41.4067C16.4156 41.0323 17.2395 32.2426 19.8484 30.6839L20.6124 28.9338L28.2115 27.0485L28.2392 27.0798C28.9699 27.9048 29.4526 28.9212 29.6312 30.0109L31.9019 43.8292L31.9031 43.8369L31.2943 53.4767L32.1271 67.6986H29.1137C27.2495 64.175 26.458 59.4406 26.7392 53.4953Z" fill="#2F2E41"/>
<path d="M33.2808 5.734C33.3967 5.8368 33.4886 5.96386 33.5503 6.10623C33.6119 6.2486 33.6418 6.40282 33.6377 6.55802C33.6336 6.71323 33.5956 6.86564 33.5266 7.00452C33.4575 7.14341 33.3589 7.2654 33.2378 7.36188L34.4787 10.9241L32.5854 10.4458L31.6973 7.13637C31.5494 6.92128 31.4852 6.65919 31.5169 6.39974C31.5485 6.14029 31.6738 5.90152 31.869 5.72866C32.0642 5.55581 32.3157 5.46087 32.5759 5.46186C32.8361 5.46284 33.0869 5.55967 33.2808 5.734Z" fill="#9E616A"/>
<path d="M18.3726 32.6414C18.1679 32.6414 18.0517 32.6011 18.0067 32.5146C17.9406 32.3878 18.0552 32.222 18.1879 32.03C18.2805 31.8962 18.5508 31.6302 18.4179 31.6139C16.402 31.3666 17.3697 18.8816 18.2433 17.2313C18.4208 16.896 18.233 16.3815 18.4329 15.8125C18.9789 14.2585 19.7242 13.7808 21.209 12.8295C21.3295 12.7522 21.455 12.6716 21.5855 12.5874C21.7543 12.4785 21.7449 12.1172 21.735 11.7346C21.7239 11.3094 21.7125 10.8697 21.9198 10.5949L21.9333 10.577L21.9551 10.5719C22.4566 10.4554 24.1435 10.2392 25.1425 10.5735L25.1563 10.5782L25.1666 10.5885C25.4039 10.8269 25.4256 11.2886 25.4465 11.7351C25.4636 12.1017 25.4798 12.4479 25.6141 12.5982C26.6405 13.7475 27.8046 13.7251 27.8164 13.7249L27.8741 13.7232L27.8798 13.7808C28.5995 15.1568 28.036 20.2668 28.5362 23.441C29.0444 26.6658 33.3844 29.4109 29.6682 29.8983C29.6762 29.9107 29.6807 29.9251 29.6811 29.9399C29.6816 29.9546 29.678 29.9692 29.6707 29.9821C29.4462 30.4035 19.1439 32.6414 18.3726 32.6414Z" fill="#6C63FF"/>
<path d="M35.1723 16.9164L33.1096 17.9441C29.135 19.4779 27.0578 19.1043 26.0142 18.5212C24.9006 17.899 24.7076 16.9452 24.7 16.905L24.6993 16.8855L24.9537 14.8609C24.9861 14.6038 25.0725 14.3565 25.2071 14.1354C25.3418 13.9143 25.5218 13.7245 25.735 13.5786C25.9483 13.4326 26.19 13.3339 26.4441 13.2889C26.6982 13.2439 26.959 13.2537 27.209 13.3177L31.9544 14.5308L31.8679 12.2168L32.0556 11.3836L31.7094 10.3708L31.8512 8.33678L33.5534 7.91828L35.3389 11.1309L35.0181 12.0175L35.3204 12.4589L35.3198 12.4794L35.1723 16.9164Z" fill="#6C63FF"/>
<path d="M92.8526 72.9618L0.147484 73C0.10846 72.9999 0.0710725 72.9842 0.0435176 72.9565C0.0159628 72.9287 0.000488281 72.8911 0.000488281 72.8519C0.000488281 72.8127 0.0159628 72.7751 0.0435176 72.7473C0.0710725 72.7196 0.10846 72.7039 0.147484 72.7038L92.8526 72.6656C92.8917 72.6657 92.9291 72.6813 92.9566 72.7091C92.9842 72.7369 92.9996 72.7745 92.9996 72.8137C92.9996 72.8529 92.9842 72.8905 92.9566 72.9182C92.9291 72.946 92.8917 72.9616 92.8526 72.9618Z" fill="#CACACA"/>
<path d="M26.7235 11.3901C26.617 11.1949 26.4338 10.6364 26.2282 10.6439C26.018 10.6531 25.8074 10.6352 25.6017 10.5904C25.5795 10.5867 25.5572 10.5817 25.5361 10.5767C24.6679 10.359 23.7776 10.2422 22.8828 10.2284C22.161 10.2185 21.3686 10.3056 20.8646 10.8242C20.3607 11.3429 20.435 12.4125 21.1296 12.6102C18.8084 13.014 16.4222 12.4827 14.4883 11.1314C13.2588 10.2633 12.2732 9.10036 11.2307 8.01332C10.1882 6.92503 9.03925 5.87903 7.63397 5.3467C6.22745 4.81313 4.50768 4.88775 3.37479 5.88151C1.99304 7.09294 1.88656 9.17748 1.88532 11.0195C1.88408 11.7085 2.09828 11.563 2.70372 11.8876C3.26584 12.1886 3.85643 12.808 4.19939 12.2695C4.54235 11.7309 4.60302 11.0655 4.67359 10.4299C4.74293 9.79438 4.84569 9.12524 5.24685 8.62898C5.93649 7.77576 7.29472 7.76705 8.24684 8.30809C9.19897 8.84912 9.83908 9.79562 10.4445 10.711C11.05 11.6252 11.6888 12.5742 12.6397 13.1189C13.889 13.8341 15.4577 13.7284 16.7615 14.3378C17.5898 14.7259 18.2596 15.3764 18.9468 15.9796C19.6352 16.5828 20.3892 17.1636 21.2819 17.3589C22.1734 17.5554 23.232 17.2594 23.6703 16.4547C24.0652 15.7271 23.8721 14.7955 24.2237 14.0443C24.4949 13.4647 25.0483 13.0804 25.5473 12.6799C25.7528 12.5145 25.806 13.0841 25.9806 12.8826C26.4845 12.7819 26.9575 11.8192 26.7235 11.3901Z" fill="#3F3D56"/>
<path d="M23.2518 10.3611C25.4125 10.3611 27.1641 8.60153 27.1641 6.43104C27.1641 4.26054 25.4125 2.501 23.2518 2.501C21.0911 2.501 19.3396 4.26054 19.3396 6.43104C19.3396 8.60153 21.0911 10.3611 23.2518 10.3611Z" fill="#2F2E41"/>
<path d="M23.5668 10.6855C25.1189 10.6413 26.3415 9.34149 26.2976 7.78229C26.2536 6.22308 24.9597 4.99491 23.4075 5.03909C21.8554 5.08326 20.6328 6.38306 20.6767 7.94227C20.7207 9.50147 22.0146 10.7296 23.5668 10.6855Z" fill="#9E616A"/>
<path d="M23.5143 3.55501L22.3746 3.58745C21.6564 3.60848 20.9757 3.9149 20.4822 4.43946C19.9886 4.96403 19.7223 5.66388 19.7418 6.38544L19.7425 6.41079L19.7633 6.42387C20.3828 6.83561 21.114 7.04459 21.8565 7.02211L21.9205 7.02029L22.5503 6.99163C22.6562 6.71763 22.6916 6.42122 22.6533 6.12982C22.7484 6.40604 22.8226 6.68908 22.8754 6.97652L25.701 6.84729C25.8654 6.83911 26.0201 6.76672 26.1321 6.64556C26.2441 6.5244 26.3046 6.36406 26.3006 6.19875C26.2794 5.47724 25.9741 4.79366 25.4518 4.29801C24.9294 3.80236 24.2326 3.53515 23.5143 3.55501Z" fill="#2F2E41"/>
<path d="M21.2432 2.84631C20.9859 3.16498 20.5729 3.29776 20.2017 3.47035C19.5469 3.78143 18.9775 4.24827 18.5429 4.8304C18.1083 5.41252 17.8216 6.09236 17.7076 6.81095C17.6202 7.39611 17.6508 7.99841 17.5027 8.57066C17.3556 9.14288 16.9675 9.71123 16.3907 9.82622C16.0004 9.90468 15.6029 9.76373 15.2298 9.62405C15.0246 9.54791 14.8194 9.47144 14.6141 9.39464C14.8107 8.85517 15.007 8.31571 15.2029 7.77626C14.878 8.28935 14.4967 8.76412 14.0663 9.19162C13.3308 8.9178 12.5947 8.644 11.858 8.37021C13.6503 8.32603 13.2952 6.58714 13.6467 4.82228C13.8399 3.85249 15.698 3.14665 16.0401 2.21947C16.2249 1.71659 16.5492 1.27742 16.9747 0.953936C17.4002 0.63045 17.9091 0.436187 18.4411 0.394142C18.973 0.352098 19.5059 0.464031 19.9765 0.716693C20.4471 0.969355 20.8358 1.35217 21.0966 1.81983C21.4687 1.95661 21.4956 2.53169 21.2432 2.84631Z" fill="#2F2E41"/>
<path d="M21.4224 4.0151C22.2269 4.0151 22.8792 3.35991 22.8792 2.55169C22.8792 1.74346 22.2269 1.08827 21.4224 1.08827C20.6178 1.08827 19.9656 1.74346 19.9656 2.55169C19.9656 3.35991 20.6178 4.0151 21.4224 4.0151Z" fill="#2F2E41"/>
</svg>
