<svg width="90" height="70" viewBox="0 0 90 70" fill="none" xmlns="http://www.w3.org/2000/svg">
<path d="M75.7533 6.48652C70.0133 3.82652 63.8999 1.86652 57.4599 0.746521C56.6666 2.14652 55.7333 4.05985 55.1266 5.59985C48.3133 4.57319 41.5466 4.57319 34.8733 5.59985C34.22 4.05985 33.2867 2.14652 32.4933 0.746521C26.0533 1.86652 19.94 3.82652 14.2 6.48652C2.62666 23.9399 -0.500009 40.9733 1.03999 57.7267C8.73999 63.4667 16.16 66.92 23.4867 69.2067C25.3067 66.7333 26.8933 64.0733 28.2933 61.32C25.6333 60.34 23.1133 59.08 20.7333 57.6333C21.3867 57.1667 21.9933 56.6533 22.6 56.1867C37.2066 63 53.0266 63 67.4466 56.1867C68.0533 56.7 68.6599 57.1667 69.3133 57.6333C66.9333 59.08 64.3666 60.2933 61.7533 61.32C63.1533 64.0733 64.7399 66.7333 66.5599 69.2067C73.8866 66.92 81.3533 63.4667 89.0066 57.7267C90.8266 38.2667 85.8799 21.4199 75.8466 6.48652H75.7533ZM30.2533 47.46C25.8667 47.46 22.2733 43.4 22.2733 38.4067C22.2733 33.4133 25.7733 29.3533 30.2533 29.3533C34.7333 29.3533 38.2799 33.4133 38.2333 38.4067C38.2333 43.3533 34.7333 47.46 30.2533 47.46ZM59.6999 47.46C55.3133 47.46 51.7199 43.4 51.7199 38.4067C51.7199 33.4133 55.2199 29.3533 59.6999 29.3533C64.1799 29.3533 67.7266 33.4133 67.6799 38.4067C67.6799 43.3533 64.1799 47.46 59.6999 47.46Z" fill="white"/>
</svg>
