<svg width="47" height="47" viewBox="0 0 47 47" fill="none" xmlns="http://www.w3.org/2000/svg">
<g clip-path="url(#clip0_17_19)">
<path fill-rule="evenodd" clip-rule="evenodd" d="M37.4003 20.8333C29.8262 16.3354 17.3312 15.9212 10.0979 18.1161C8.93704 18.4663 7.71034 17.8129 7.35784 16.6497C7.00534 15.4888 7.66099 14.262 8.82189 13.9095C17.1244 11.388 30.9237 11.8742 39.6445 17.0513C40.6879 17.6717 41.031 19.0211 40.4106 20.0645C39.7949 21.1079 38.4413 21.4537 37.4003 20.8333ZM37.1535 27.4955C36.6224 28.3579 35.4944 28.6278 34.6319 28.099C28.3175 24.2168 18.6872 23.0934 11.2166 25.3612C10.246 25.6526 9.22376 25.1073 8.93001 24.1391C8.63861 23.1709 9.1838 22.1483 10.152 21.8545C18.6848 19.2648 29.2951 20.52 36.5496 24.9779C37.412 25.5067 37.6822 26.6354 37.1535 27.4955ZM34.2771 33.8937C33.8541 34.5846 32.954 34.8032 32.2631 34.3802C26.7453 31.008 19.7987 30.2469 11.6184 32.1151C10.8312 32.2961 10.0439 31.802 9.8653 31.0124C9.68435 30.2252 10.1755 29.4412 10.9674 29.2603C19.9186 27.2134 27.596 28.0941 33.7906 31.8799C34.4815 32.3029 34.7001 33.2028 34.2771 33.8937ZM23.5 0C10.521 0 0 10.521 0 23.5C0 36.479 10.521 47 23.5 47C36.479 47 47 36.479 47 23.5C47 10.5233 36.479 0 23.5 0Z" fill="#1ED760"/>
</g>
<defs>
<clipPath id="clip0_17_19">
<rect width="47" height="47" fill="white"/>
</clipPath>
</defs>
</svg>
