<svg width="46" height="46" viewBox="0 0 46 46" fill="none" xmlns="http://www.w3.org/2000/svg">
<g clip-path="url(#clip0_17_19)">
<path fill-rule="evenodd" clip-rule="evenodd" d="M36.6045 20.39C29.1916 15.9878 16.9625 15.5825 9.88309 17.7307C8.74689 18.0734 7.54629 17.4339 7.20129 16.2954C6.85629 15.1592 7.49799 13.9586 8.63419 13.6136C16.7601 11.1457 30.2657 11.6216 38.801 16.6885C39.8222 17.2957 40.158 18.6164 39.5508 19.6376C38.9482 20.6588 37.6234 20.9972 36.6045 20.39ZM36.363 26.9104C35.8432 27.7545 34.7392 28.0187 33.8951 27.5012C27.715 23.7016 18.2896 22.6021 10.9779 24.8216C10.028 25.1068 9.02751 24.5731 8.74001 23.6255C8.45481 22.6779 8.9884 21.6771 9.936 21.3896C18.2873 18.855 28.6718 20.0834 35.7719 24.4465C36.616 24.964 36.8805 26.0686 36.363 26.9104ZM33.5478 33.1726C33.1338 33.8488 32.2529 34.0627 31.5767 33.6487C26.1763 30.3482 19.3775 29.6033 11.3712 31.4318C10.6007 31.6089 9.8302 31.1254 9.6554 30.3526C9.4783 29.5821 9.959 28.8148 10.7341 28.6377C19.4948 26.6344 27.0089 27.4963 33.0717 31.2016C33.7479 31.6156 33.9618 32.4964 33.5478 33.1726ZM23 0C10.2971 0 0 10.2971 0 23C0 35.7029 10.2971 46 23 46C35.7029 46 46 35.7029 46 23C46 10.2994 35.7029 0 23 0Z" fill="#1ED760"/>
</g>
<defs>
<clipPath id="clip0_17_19">
<rect width="46" height="46" fill="white"/>
</clipPath>
</defs>
</svg>
